# xmcd
#
# Track frame offsets:
#	150
#	9723
#	21011
#	30739
#	42571
#	55589
#	65260
#	75363
#
# Disc length: 1114 seconds
#
# Revision: 1
# Processed by: cddbd v1.5.1PL0 Copyright (c) Steve Scherf et al.
# Submitted via: EasyCDDAExtractor 6.5.4.1
#
DISCID=57045808
DTITLE=Honey Boy Watson - The Seminal Recordings 1954-56
DYEAR=2001
DGENRE=Bluegrass
TTITLE0=Honey Pot
TTITLE1=Honey Bear
TTITLE2=Gap Tooth Woman
TTITLE3=Gap Toothed Woman
TTITLE4=Shot Me In The Ass (But I Kept on Running)
TTITLE5=Choke On My Big Fat Dick
TTITLE6=Fixer Upper Man
TTITLE7=Back Door Man
EXTD=
EXTT0=
EXTT1=
EXTT2=
EXTT3=
EXTT4=
EXTT5=
EXTT6=
EXTT7=
PLAYORDER=
